# xmcd
#
# Track frame offsets:
#	150
#	16620
#	31328
#	42877
#	59895
#	73656
#	88500
#	106345
#	118448
#	134563
#	151242
#	170909
#	185561
#	194198
#	209476
#	219841
#	230482
#	243008
#
# Disc length: 3479 seconds
#
# Revision: 1
# Processed by: cddbd v1.5.2PL0 Copyright (c) Steve Scherf et al.
# Submitted via: audiograbber 1.83.01
#
DISCID=0d0d9512
DTITLE=Various Artist - Christmas Country
DYEAR=1900
DGENRE=
TTITLE0=pretty paper - Willie Nelson
TTITLE1=all I want for X-mas - Louise Mandrell
TTITLE2=If we make it through december - Merle Haggard
TTITLE3=o`little town of bethlehem - Charlie Pride
TTITLE4=Hallelujah - Crystal Gayle
TTITLE5=away in a manger - Loretta Lynn
TTITLE6=the little drummer boy - Glen Campbell
TTITLE7=joy to the world - Mickey gilley
TTITLE8=it came upon a midnight clear - Willie Nelson
TTITLE9=the first noel - Bill Anderson
TTITLE10=o`holy night - B.J. Thomas
TTITLE11=o`come all ye faithful - Waylon Jennings
TTITLE12=we wish you a merry christmas - Porter Wagoner
TTITLE13=o`christmas tree - Tom T. Hall
TTITLE14=i heard the bells on christmas day - Larry Gatlin
TTITLE15=deck the halls - Boxcar Willie
TTITLE16=what child is this - Kim Carnes
TTITLE17=silent night - Brenda Lee
EXTD=
EXTT0=
EXTT1=
EXTT2=
EXTT3=
EXTT4=
EXTT5=
EXTT6=
EXTT7=
EXTT8=
EXTT9=
EXTT10=
EXTT11=
EXTT12=
EXTT13=
EXTT14=
EXTT15=
EXTT16=
EXTT17=
PLAYORDER=
